<mxfile host="app.diagrams.net" agent="Mozilla/5.0 (X11; Linux x86_64) AppleWebKit/537.36 (KHTML, like Gecko) Chrome/131.0.0.0 Safari/537.36" version="27.0.6">
  <diagram name="Page-1" id="TGWT51WIdp7XkZaSbVBs">
    <mxGraphModel dx="1426" dy="764" grid="1" gridSize="10" guides="1" tooltips="1" connect="1" arrows="1" fold="1" page="1" pageScale="1" pageWidth="850" pageHeight="1100" math="0" shadow="0">
      <root>
        <mxCell id="0" />
        <mxCell id="1" parent="0" />
        <mxCell id="zZlsOXDRzm4i8i5iI6bv-11" value="SFTP&lt;br&gt;Product File" style="rounded=0;whiteSpace=wrap;html=1;" vertex="1" parent="1">
          <mxGeometry x="730" y="290" width="120" height="60" as="geometry" />
        </mxCell>
        <mxCell id="zZlsOXDRzm4i8i5iI6bv-12" style="edgeStyle=orthogonalEdgeStyle;rounded=0;orthogonalLoop=1;jettySize=auto;html=1;exitX=0.5;exitY=1;exitDx=0;exitDy=0;entryX=0.5;entryY=0;entryDx=0;entryDy=0;" edge="1" parent="1" source="zZlsOXDRzm4i8i5iI6bv-16" target="zZlsOXDRzm4i8i5iI6bv-21">
          <mxGeometry relative="1" as="geometry" />
        </mxCell>
        <mxCell id="zZlsOXDRzm4i8i5iI6bv-13" style="edgeStyle=orthogonalEdgeStyle;rounded=0;orthogonalLoop=1;jettySize=auto;html=1;" edge="1" parent="1" source="zZlsOXDRzm4i8i5iI6bv-16" target="zZlsOXDRzm4i8i5iI6bv-20">
          <mxGeometry relative="1" as="geometry">
            <Array as="points">
              <mxPoint x="790" y="515" />
              <mxPoint x="680" y="515" />
            </Array>
          </mxGeometry>
        </mxCell>
        <mxCell id="zZlsOXDRzm4i8i5iI6bv-14" style="edgeStyle=orthogonalEdgeStyle;rounded=0;orthogonalLoop=1;jettySize=auto;html=1;exitX=0.5;exitY=1;exitDx=0;exitDy=0;entryX=0.5;entryY=0;entryDx=0;entryDy=0;" edge="1" parent="1" source="zZlsOXDRzm4i8i5iI6bv-16" target="zZlsOXDRzm4i8i5iI6bv-19">
          <mxGeometry relative="1" as="geometry" />
        </mxCell>
        <mxCell id="zZlsOXDRzm4i8i5iI6bv-15" style="edgeStyle=orthogonalEdgeStyle;rounded=0;orthogonalLoop=1;jettySize=auto;html=1;exitX=0.5;exitY=1;exitDx=0;exitDy=0;" edge="1" parent="1" source="zZlsOXDRzm4i8i5iI6bv-16" target="zZlsOXDRzm4i8i5iI6bv-18">
          <mxGeometry relative="1" as="geometry" />
        </mxCell>
        <mxCell id="zZlsOXDRzm4i8i5iI6bv-56" value="Spilt File" style="edgeLabel;html=1;align=center;verticalAlign=middle;resizable=0;points=[];" vertex="1" connectable="0" parent="zZlsOXDRzm4i8i5iI6bv-15">
          <mxGeometry x="-0.869" y="-1" relative="1" as="geometry">
            <mxPoint as="offset" />
          </mxGeometry>
        </mxCell>
        <mxCell id="zZlsOXDRzm4i8i5iI6bv-47" style="edgeStyle=orthogonalEdgeStyle;rounded=0;orthogonalLoop=1;jettySize=auto;html=1;entryX=0;entryY=0.5;entryDx=0;entryDy=0;" edge="1" parent="1" source="zZlsOXDRzm4i8i5iI6bv-16" target="zZlsOXDRzm4i8i5iI6bv-34">
          <mxGeometry relative="1" as="geometry" />
        </mxCell>
        <mxCell id="zZlsOXDRzm4i8i5iI6bv-59" value="&lt;span style=&quot;color: rgba(0, 0, 0, 0); font-family: monospace; font-size: 0px; text-align: start; background-color: rgb(236, 236, 236);&quot;&gt;%3CmxGraphModel%3E%3Croot%3E%3CmxCell%20id%3D%220%22%2F%3E%3CmxCell%20id%3D%221%22%20parent%3D%220%22%2F%3E%3CmxCell%20id%3D%222%22%20value%3D%22Sorting%20the%20keys%20of%20product%20maps%22%20style%3D%22text%3Bhtml%3D1%3Balign%3Dcenter%3BverticalAlign%3Dmiddle%3Bresizable%3D0%3Bpoints%3D%5B%5D%3Bautosize%3D1%3BstrokeColor%3Dnone%3BfillColor%3Dnone%3B%22%20vertex%3D%221%22%20parent%3D%221%22%3E%3CmxGeometry%20x%3D%22855%22%20y%3D%22448%22%20width%3D%22200%22%20height%3D%2230%22%20as%3D%22geometry%22%2F%3E%3C%2FmxCell%3E%3C%2Froot%3E%3C%2FmxGraphModel%3E&lt;/span&gt;" style="edgeLabel;html=1;align=center;verticalAlign=middle;resizable=0;points=[];" vertex="1" connectable="0" parent="zZlsOXDRzm4i8i5iI6bv-47">
          <mxGeometry x="-0.219" y="2" relative="1" as="geometry">
            <mxPoint as="offset" />
          </mxGeometry>
        </mxCell>
        <mxCell id="zZlsOXDRzm4i8i5iI6bv-60" value="Sorting the keys of product maps" style="edgeLabel;html=1;align=center;verticalAlign=middle;resizable=0;points=[];" vertex="1" connectable="0" parent="zZlsOXDRzm4i8i5iI6bv-47">
          <mxGeometry x="-0.2286" y="2" relative="1" as="geometry">
            <mxPoint x="19" as="offset" />
          </mxGeometry>
        </mxCell>
        <mxCell id="zZlsOXDRzm4i8i5iI6bv-16" value="Product File" style="rounded=0;whiteSpace=wrap;html=1;" vertex="1" parent="1">
          <mxGeometry x="730" y="420" width="120" height="50" as="geometry" />
        </mxCell>
        <mxCell id="zZlsOXDRzm4i8i5iI6bv-17" value="" style="endArrow=classic;html=1;rounded=0;exitX=0.5;exitY=1;exitDx=0;exitDy=0;" edge="1" parent="1" source="zZlsOXDRzm4i8i5iI6bv-11">
          <mxGeometry width="50" height="50" relative="1" as="geometry">
            <mxPoint x="750" y="680" as="sourcePoint" />
            <mxPoint x="790" y="420" as="targetPoint" />
          </mxGeometry>
        </mxCell>
        <mxCell id="zZlsOXDRzm4i8i5iI6bv-57" value="&lt;span style=&quot;color: rgba(0, 0, 0, 0); font-family: monospace; font-size: 0px; text-align: start; background-color: rgb(236, 236, 236);&quot;&gt;%3CmxGraphModel%3E%3Croot%3E%3CmxCell%20id%3D%220%22%2F%3E%3CmxCell%20id%3D%221%22%20parent%3D%220%22%2F%3E%3CmxCell%20id%3D%222%22%20value%3D%22Download%20file%20in%20system%22%20style%3D%22text%3Bhtml%3D1%3Balign%3Dcenter%3BverticalAlign%3Dmiddle%3Bresizable%3D0%3Bpoints%3D%5B%5D%3Bautosize%3D1%3BstrokeColor%3Dnone%3BfillColor%3Dnone%3B%22%20vertex%3D%221%22%20parent%3D%221%22%3E%3CmxGeometry%20x%3D%22790%22%20y%3D%22370%22%20width%3D%22150%22%20height%3D%2230%22%20as%3D%22geometry%22%2F%3E%3C%2FmxCell%3E%3C%2Froot%3E%3C%2FmxGraphModel%3EDO&lt;/span&gt;" style="edgeLabel;html=1;align=center;verticalAlign=middle;resizable=0;points=[];" vertex="1" connectable="0" parent="zZlsOXDRzm4i8i5iI6bv-17">
          <mxGeometry x="-0.2857" y="1" relative="1" as="geometry">
            <mxPoint as="offset" />
          </mxGeometry>
        </mxCell>
        <mxCell id="zZlsOXDRzm4i8i5iI6bv-58" value="Download file in system" style="edgeLabel;html=1;align=center;verticalAlign=middle;resizable=0;points=[];" vertex="1" connectable="0" parent="zZlsOXDRzm4i8i5iI6bv-17">
          <mxGeometry x="0.0286" y="2" relative="1" as="geometry">
            <mxPoint as="offset" />
          </mxGeometry>
        </mxCell>
        <mxCell id="zZlsOXDRzm4i8i5iI6bv-18" value="Nil.json" style="rounded=0;whiteSpace=wrap;html=1;" vertex="1" parent="1">
          <mxGeometry x="930" y="560" width="120" height="60" as="geometry" />
        </mxCell>
        <mxCell id="zZlsOXDRzm4i8i5iI6bv-19" value="ProductAssoc.json" style="rounded=0;whiteSpace=wrap;html=1;" vertex="1" parent="1">
          <mxGeometry x="770" y="560" width="120" height="60" as="geometry" />
        </mxCell>
        <mxCell id="zZlsOXDRzm4i8i5iI6bv-20" value="SupplierProduct.json" style="rounded=0;whiteSpace=wrap;html=1;" vertex="1" parent="1">
          <mxGeometry x="620" y="560" width="120" height="60" as="geometry" />
        </mxCell>
        <mxCell id="zZlsOXDRzm4i8i5iI6bv-21" value="Product.json" style="rounded=0;whiteSpace=wrap;html=1;" vertex="1" parent="1">
          <mxGeometry x="460" y="560" width="120" height="60" as="geometry" />
        </mxCell>
        <mxCell id="zZlsOXDRzm4i8i5iI6bv-22" value="SFTP folder" style="rounded=0;whiteSpace=wrap;html=1;" vertex="1" parent="1">
          <mxGeometry x="410" y="740" width="760" height="70" as="geometry" />
        </mxCell>
        <mxCell id="zZlsOXDRzm4i8i5iI6bv-24" value="Importing Proudct File" style="text;html=1;align=center;verticalAlign=middle;resizable=0;points=[];autosize=1;strokeColor=none;fillColor=none;" vertex="1" parent="1">
          <mxGeometry x="870" y="305" width="140" height="30" as="geometry" />
        </mxCell>
        <mxCell id="zZlsOXDRzm4i8i5iI6bv-27" style="edgeStyle=orthogonalEdgeStyle;rounded=0;orthogonalLoop=1;jettySize=auto;html=1;exitX=0.5;exitY=1;exitDx=0;exitDy=0;entryX=0.145;entryY=-0.043;entryDx=0;entryDy=0;entryPerimeter=0;" edge="1" parent="1" source="zZlsOXDRzm4i8i5iI6bv-21" target="zZlsOXDRzm4i8i5iI6bv-22">
          <mxGeometry relative="1" as="geometry">
            <mxPoint x="520" y="730" as="targetPoint" />
          </mxGeometry>
        </mxCell>
        <mxCell id="zZlsOXDRzm4i8i5iI6bv-50" value="Put on SFTP" style="edgeLabel;html=1;align=center;verticalAlign=middle;resizable=0;points=[];" vertex="1" connectable="0" parent="zZlsOXDRzm4i8i5iI6bv-27">
          <mxGeometry x="0.2237" relative="1" as="geometry">
            <mxPoint y="-21" as="offset" />
          </mxGeometry>
        </mxCell>
        <mxCell id="zZlsOXDRzm4i8i5iI6bv-34" value="Storing file on local system" style="rounded=0;whiteSpace=wrap;html=1;" vertex="1" parent="1">
          <mxGeometry x="1060" y="420" width="120" height="50" as="geometry" />
        </mxCell>
        <mxCell id="zZlsOXDRzm4i8i5iI6bv-42" style="edgeStyle=orthogonalEdgeStyle;rounded=0;orthogonalLoop=1;jettySize=auto;html=1;entryX=0.355;entryY=0;entryDx=0;entryDy=0;entryPerimeter=0;" edge="1" parent="1" source="zZlsOXDRzm4i8i5iI6bv-20" target="zZlsOXDRzm4i8i5iI6bv-22">
          <mxGeometry relative="1" as="geometry" />
        </mxCell>
        <mxCell id="zZlsOXDRzm4i8i5iI6bv-51" value="Put on SFTP" style="edgeLabel;html=1;align=center;verticalAlign=middle;resizable=0;points=[];" vertex="1" connectable="0" parent="zZlsOXDRzm4i8i5iI6bv-42">
          <mxGeometry x="-0.0516" y="-1" relative="1" as="geometry">
            <mxPoint x="1" y="-12" as="offset" />
          </mxGeometry>
        </mxCell>
        <mxCell id="zZlsOXDRzm4i8i5iI6bv-43" style="edgeStyle=orthogonalEdgeStyle;rounded=0;orthogonalLoop=1;jettySize=auto;html=1;entryX=0.553;entryY=-0.043;entryDx=0;entryDy=0;entryPerimeter=0;" edge="1" parent="1" source="zZlsOXDRzm4i8i5iI6bv-19" target="zZlsOXDRzm4i8i5iI6bv-22">
          <mxGeometry relative="1" as="geometry" />
        </mxCell>
        <mxCell id="zZlsOXDRzm4i8i5iI6bv-52" value="Put on SFTP" style="edgeLabel;html=1;align=center;verticalAlign=middle;resizable=0;points=[];" vertex="1" connectable="0" parent="zZlsOXDRzm4i8i5iI6bv-43">
          <mxGeometry x="-0.0281" y="-1" relative="1" as="geometry">
            <mxPoint x="1" y="-11" as="offset" />
          </mxGeometry>
        </mxCell>
        <mxCell id="zZlsOXDRzm4i8i5iI6bv-44" style="edgeStyle=orthogonalEdgeStyle;rounded=0;orthogonalLoop=1;jettySize=auto;html=1;entryX=0.764;entryY=-0.043;entryDx=0;entryDy=0;entryPerimeter=0;" edge="1" parent="1" source="zZlsOXDRzm4i8i5iI6bv-18" target="zZlsOXDRzm4i8i5iI6bv-22">
          <mxGeometry relative="1" as="geometry" />
        </mxCell>
        <mxCell id="zZlsOXDRzm4i8i5iI6bv-53" value="Put on SFTP" style="edgeLabel;html=1;align=center;verticalAlign=middle;resizable=0;points=[];" vertex="1" connectable="0" parent="zZlsOXDRzm4i8i5iI6bv-44">
          <mxGeometry x="-0.2006" y="2" relative="1" as="geometry">
            <mxPoint x="-2" y="-2" as="offset" />
          </mxGeometry>
        </mxCell>
        <mxCell id="zZlsOXDRzm4i8i5iI6bv-46" style="edgeStyle=orthogonalEdgeStyle;rounded=0;orthogonalLoop=1;jettySize=auto;html=1;entryX=0.934;entryY=-0.014;entryDx=0;entryDy=0;entryPerimeter=0;" edge="1" parent="1" source="zZlsOXDRzm4i8i5iI6bv-34" target="zZlsOXDRzm4i8i5iI6bv-22">
          <mxGeometry relative="1" as="geometry" />
        </mxCell>
        <mxCell id="zZlsOXDRzm4i8i5iI6bv-54" value="&lt;span style=&quot;color: rgba(0, 0, 0, 0); font-family: monospace; font-size: 0px; text-align: start; background-color: rgb(236, 236, 236);&quot;&gt;%3CmxGraphModel%3E%3Croot%3E%3CmxCell%20id%3D%220%22%2F%3E%3CmxCell%20id%3D%221%22%20parent%3D%220%22%2F%3E%3CmxCell%20id%3D%222%22%20value%3D%22Put%20on%20SFTP%22%20style%3D%22text%3Bhtml%3D1%3Balign%3Dcenter%3BverticalAlign%3Dmiddle%3Bresizable%3D0%3Bpoints%3D%5B%5D%3Bautosize%3D1%3BstrokeColor%3Dnone%3BfillColor%3Dnone%3B%22%20vertex%3D%221%22%20parent%3D%221%22%3E%3CmxGeometry%20x%3D%221130%22%20y%3D%22650%22%20width%3D%2290%22%20height%3D%2230%22%20as%3D%22geometry%22%2F%3E%3C%2FmxCell%3E%3C%2Froot%3E%3C%2FmxGraphModel%3EP&lt;/span&gt;" style="edgeLabel;html=1;align=center;verticalAlign=middle;resizable=0;points=[];" vertex="1" connectable="0" parent="zZlsOXDRzm4i8i5iI6bv-46">
          <mxGeometry x="0.4463" y="1" relative="1" as="geometry">
            <mxPoint y="-1" as="offset" />
          </mxGeometry>
        </mxCell>
        <mxCell id="zZlsOXDRzm4i8i5iI6bv-55" value="Put on SFTP" style="edgeLabel;html=1;align=center;verticalAlign=middle;resizable=0;points=[];" vertex="1" connectable="0" parent="zZlsOXDRzm4i8i5iI6bv-46">
          <mxGeometry x="0.268" y="1" relative="1" as="geometry">
            <mxPoint y="20" as="offset" />
          </mxGeometry>
        </mxCell>
      </root>
    </mxGraphModel>
  </diagram>
</mxfile>
